<svg width="16" height="16" viewBox="0 0 16 16" fill="none" xmlns="http://www.w3.org/2000/svg">
<path d="M8.00033 7.99967C9.84127 7.99967 11.3337 6.50729 11.3337 4.66634C11.3337 2.82539 9.84127 1.33301 8.00033 1.33301C6.15938 1.33301 4.66699 2.82539 4.66699 4.66634C4.66699 6.50729 6.15938 7.99967 8.00033 7.99967Z" stroke="#36445F" stroke-width="1.5" stroke-linecap="round" stroke-linejoin="round"/>
<path d="M2.27344 14.6667C2.27344 12.0867 4.84012 10 8.00012 10" stroke="#36445F" stroke-width="1.5" stroke-linecap="round" stroke-linejoin="round"/>
<path d="M12.1333 14.2667C13.3115 14.2667 14.2667 13.3115 14.2667 12.1333C14.2667 10.9551 13.3115 10 12.1333 10C10.9551 10 10 10.9551 10 12.1333C10 13.3115 10.9551 14.2667 12.1333 14.2667Z" stroke="#36445F" stroke-width="1.5" stroke-linecap="round" stroke-linejoin="round"/>
<path d="M14.6667 14.6667L14 14" stroke="#36445F" stroke-width="1.5" stroke-linecap="round" stroke-linejoin="round"/>
</svg>
