<svg width="32" height="32" viewBox="0 0 32 32" fill="none" xmlns="http://www.w3.org/2000/svg">
<g clip-path="url(#clip0_501_15708)">
<path d="M25.7735 16C25.7735 21.3977 21.3977 25.7735 16 25.7735C10.6023 25.7735 6.22652 21.3977 6.22652 16C6.22652 10.6023 10.6023 6.22652 16 6.22652C21.3977 6.22652 25.7735 10.6023 25.7735 16ZM5.36364 6.22652H7.31448C4.62159 8.62136 2.925 12.1126 2.925 16C2.925 23.2211 8.77888 29.075 16 29.075H26.6364C27.5481 29.075 28.2871 28.3359 28.2871 27.4242C28.2871 26.5126 27.5481 25.7735 26.6364 25.7735H24.6855C27.3784 23.3786 29.075 19.8874 29.075 16C29.075 8.77888 23.2211 2.925 16 2.925L5.36364 2.925C4.45195 2.925 3.71288 3.66407 3.71288 4.57576C3.71288 5.48745 4.45195 6.22652 5.36364 6.22652Z" fill="#3F57FD" stroke="#3F57FD" stroke-width="0.15" stroke-linecap="round"/>
</g>
<defs>
<clipPath id="clip0_501_15708">
<rect width="32" height="32" fill="white"/>
</clipPath>
</defs>
</svg>
